<?xml version="1.0" encoding="utf-8"?>
<!-- Generator: Adobe Illustrator 27.5.0, SVG Export Plug-In . SVG Version: 6.00 Build 0)  -->
<svg version="1.1" id="a" xmlns="http://www.w3.org/2000/svg" xmlns:xlink="http://www.w3.org/1999/xlink" x="0px" y="0px"
	 viewBox="0 0 1700.8 1417.3" style="enable-background:new 0 0 1700.8 1417.3;" xml:space="preserve">
<style type="text/css">
	.st0{opacity:0.502;fill:#D55E00;stroke:#808285;stroke-width:15;stroke-miterlimit:10;enable-background:new    ;}
	
		.st1{opacity:0.502;fill:none;stroke:#808285;stroke-width:15;stroke-linecap:round;stroke-linejoin:round;enable-background:new    ;}
	.st2{opacity:0.502;fill:#E69F00;stroke:#808285;stroke-width:15;stroke-miterlimit:10;enable-background:new    ;}
	.st3{opacity:0.502;fill:#CC6677;stroke:#808285;stroke-width:15;stroke-miterlimit:10;enable-background:new    ;}
	.st4{opacity:0.502;fill:#56B4E9;stroke:#808285;stroke-width:15;stroke-miterlimit:10;enable-background:new    ;}
	.st5{opacity:0.502;fill:#F0E442;stroke:#808285;stroke-width:15;stroke-miterlimit:10;enable-background:new    ;}
	.st6{opacity:0.502;fill:#88CCEE;stroke:#808285;stroke-width:15;stroke-miterlimit:10;enable-background:new    ;}
	.st7{opacity:0.502;fill:#009E73;stroke:#808285;stroke-width:15;stroke-miterlimit:10;enable-background:new    ;}
	.st8{opacity:0.502;fill:#117733;stroke:#808285;stroke-width:15;stroke-miterlimit:10;enable-background:new    ;}
	.st9{opacity:0.6;}
	.st10{fill:#939598;}
	.st11{fill:none;stroke:#FF0000;stroke-width:15;stroke-linecap:round;stroke-linejoin:round;}
	.st12{fill:#FF0000;}
	.st13{fill:none;stroke:#0000FF;stroke-width:15;stroke-linecap:round;stroke-linejoin:round;}
	.st14{fill:#0000FF;}
	.st15{font-family:'ArialRoundedMTBold';}
	.st16{font-size:59px;}
</style>
<g>
	<path class="st0" d="M521.3,1013.8c0-73.7,58.5-134.2,130.6-134.2s130.6,60.6,130.6,134.2c0,74.1-58.5,134.7-130.6,134.7
		S521.3,1087.9,521.3,1013.8"/>
	<path class="st1" d="M521.3,1013.8c0-73.7,58.5-134.2,130.6-134.2s130.6,60.6,130.6,134.2c0,74.1-58.5,134.7-130.6,134.7
		S521.3,1087.9,521.3,1013.8"/>
</g>
<g>
	<path class="st2" d="M815.5,403.1c0-73.7,58.9-134.2,131.1-134.2c71.7,0,130.6,60.6,130.6,134.2c0,74.1-58.9,134.7-130.6,134.7
		C874.5,537.8,815.5,477.2,815.5,403.1"/>
	<path class="st1" d="M815.5,403.1c0-73.7,58.9-134.2,131.1-134.2c71.7,0,130.6,60.6,130.6,134.2c0,74.1-58.9,134.7-130.6,134.7
		C874.5,537.8,815.5,477.2,815.5,403.1"/>
</g>
<g>
	<path class="st3" d="M530.7,403.1c0-45.1,36.3-82.4,80.6-82.4S692,358,692,403.1c0,45.5-36.3,82.9-80.6,82.9
		S530.7,448.6,530.7,403.1"/>
	<path class="st1" d="M530.7,403.1c0-45.1,36.3-82.4,80.6-82.4S692,358,692,403.1c0,45.5-36.3,82.9-80.6,82.9
		S530.7,448.6,530.7,403.1"/>
</g>
<g>
	<path class="st2" d="M459.1,403.1c0-45.1,36.3-82.4,80.6-82.4s80.6,37.3,80.6,82.4c0,45.5-36.3,82.9-80.6,82.9
		S459.1,448.6,459.1,403.1"/>
	<path class="st1" d="M459.1,403.1c0-45.1,36.3-82.4,80.6-82.4s80.6,37.3,80.6,82.4c0,45.5-36.3,82.9-80.6,82.9
		S459.1,448.6,459.1,403.1"/>
</g>
<g>
	<path class="st4" d="M1190.9,403.1c0-45.1,36.3-82.4,80.6-82.4s80.2,37.3,80.2,82.4c0,45.5-35.8,82.9-80.2,82.9
		S1190.9,448.6,1190.9,403.1"/>
	<path class="st1" d="M1190.9,403.1c0-45.1,36.3-82.4,80.6-82.4s80.2,37.3,80.2,82.4c0,45.5-35.8,82.9-80.2,82.9
		S1190.9,448.6,1190.9,403.1"/>
</g>
<g>
	<path class="st4" d="M773.6,403.1c0-45.1,36.3-82.4,80.2-82.4c44.3,0,80.6,37.3,80.6,82.4c0,45.5-36.3,82.9-80.6,82.9
		C809.9,485.9,773.6,448.6,773.6,403.1"/>
	<path class="st1" d="M773.6,403.1c0-45.1,36.3-82.4,80.2-82.4c44.3,0,80.6,37.3,80.6,82.4c0,45.5-36.3,82.9-80.6,82.9
		C809.9,485.9,773.6,448.6,773.6,403.1"/>
</g>
<g>
	<path class="st2" d="M823.6,403.1c0-45.1,35.8-82.4,80.2-82.4s80.6,37.3,80.6,82.4c0,45.5-36.3,82.9-80.6,82.9
		S823.6,448.6,823.6,403.1"/>
	<path class="st1" d="M823.6,403.1c0-45.1,35.8-82.4,80.2-82.4s80.6,37.3,80.6,82.4c0,45.5-36.3,82.9-80.6,82.9
		S823.6,448.6,823.6,403.1"/>
</g>
<g>
	<path class="st3" d="M637.5,402.8c0-45.1,36.3-82.4,80.6-82.4s80.2,37.3,80.2,82.4c0,45.5-35.8,82.9-80.2,82.9
		S637.5,448.4,637.5,402.8"/>
	<path class="st1" d="M637.5,402.8c0-45.1,36.3-82.4,80.6-82.4s80.2,37.3,80.2,82.4c0,45.5-35.8,82.9-80.2,82.9
		S637.5,448.4,637.5,402.8"/>
</g>
<g>
	<path class="st4" d="M802.8,403.1c0-45.1,36.3-82.4,80.6-82.4s80.6,37.3,80.6,82.4c0,45.5-36.3,82.9-80.6,82.9
		S802.8,448.6,802.8,403.1"/>
	<path class="st1" d="M802.8,403.1c0-45.1,36.3-82.4,80.6-82.4s80.6,37.3,80.6,82.4c0,45.5-36.3,82.9-80.6,82.9
		S802.8,448.6,802.8,403.1"/>
</g>
<g>
	<path class="st5" d="M1082.2,403.1c0-45.1,36.3-82.4,80.6-82.4s80.6,37.3,80.6,82.4c0,45.5-36.3,82.9-80.6,82.9
		S1082.2,448.6,1082.2,403.1"/>
	<path class="st1" d="M1082.2,403.1c0-45.1,36.3-82.4,80.6-82.4s80.6,37.3,80.6,82.4c0,45.5-36.3,82.9-80.6,82.9
		S1082.2,448.6,1082.2,403.1"/>
</g>
<g>
	<path class="st6" d="M382.2,708.4c0-45.1,36.3-82.4,80.6-82.4s80.2,37.3,80.2,82.4c0,45.5-35.8,82.9-80.2,82.9
		S382.2,754,382.2,708.4"/>
	<path class="st1" d="M382.2,708.4c0-45.1,36.3-82.4,80.6-82.4s80.2,37.3,80.2,82.4c0,45.5-35.8,82.9-80.2,82.9
		S382.2,754,382.2,708.4"/>
</g>
<g>
	<path class="st4" d="M869.8,403.1c0-17,13.7-31,30.2-31s30.2,14.1,30.2,31c0,17.4-13.7,31-30.2,31S869.8,420.5,869.8,403.1"/>
	<path class="st1" d="M869.8,403.1c0-17,13.7-31,30.2-31s30.2,14.1,30.2,31c0,17.4-13.7,31-30.2,31S869.8,420.5,869.8,403.1"/>
</g>
<g>
	<path class="st2" d="M612.3,403.1c0-17,13.2-31,30.2-31c16.5,0,30.2,14.1,30.2,31c0,17.4-13.7,31-30.2,31
		C625.5,434.1,612.3,420.5,612.3,403.1"/>
	<path class="st1" d="M612.3,403.1c0-17,13.2-31,30.2-31c16.5,0,30.2,14.1,30.2,31c0,17.4-13.7,31-30.2,31
		C625.5,434.1,612.3,420.5,612.3,403.1"/>
</g>
<g>
	<path class="st2" d="M436.4,403.1c0-17,13.7-31,30.2-31c17,0,30.2,14.1,30.2,31c0,17.4-13.2,31-30.2,31
		C450.1,434.1,436.4,420.5,436.4,403.1"/>
	<path class="st1" d="M436.4,403.1c0-17,13.7-31,30.2-31c17,0,30.2,14.1,30.2,31c0,17.4-13.2,31-30.2,31
		C450.1,434.1,436.4,420.5,436.4,403.1"/>
</g>
<g>
	<path class="st2" d="M423.7,403.1c0-17,13.7-31,30.2-31s30.2,14.1,30.2,31c0,17.4-13.7,31-30.2,31S423.7,420.5,423.7,403.1"/>
	<path class="st1" d="M423.7,403.1c0-17,13.7-31,30.2-31s30.2,14.1,30.2,31c0,17.4-13.7,31-30.2,31S423.7,420.5,423.7,403.1"/>
</g>
<g>
	<path class="st4" d="M1083,403.1c0-17,13.7-31,30.2-31s30.2,14.1,30.2,31c0,17.4-13.7,31-30.2,31S1083,420.5,1083,403.1"/>
	<path class="st1" d="M1083,403.1c0-17,13.7-31,30.2-31s30.2,14.1,30.2,31c0,17.4-13.7,31-30.2,31S1083,420.5,1083,403.1"/>
</g>
<g>
	<path class="st2" d="M624.1,403.1c0-17,13.7-31,30.2-31s30.2,14.1,30.2,31c0,17.4-13.7,31-30.2,31S624.1,420.5,624.1,403.1"/>
	<path class="st1" d="M624.1,403.1c0-17,13.7-31,30.2-31s30.2,14.1,30.2,31c0,17.4-13.7,31-30.2,31S624.1,420.5,624.1,403.1"/>
</g>
<g>
	<path class="st4" d="M485,403.1c0-17,13.7-31,30.2-31c16.5,0,30.2,14.1,30.2,31c0,17.4-13.7,31-30.2,31S485,420.5,485,403.1"/>
	<path class="st1" d="M485,403.1c0-17,13.7-31,30.2-31c16.5,0,30.2,14.1,30.2,31c0,17.4-13.7,31-30.2,31S485,420.5,485,403.1"/>
</g>
<g>
	<path class="st4" d="M909.4,403.1c0-17,13.7-31,30.2-31s30.2,14.1,30.2,31c0,17.4-13.7,31-30.2,31S909.4,420.5,909.4,403.1"/>
	<path class="st1" d="M909.4,403.1c0-17,13.7-31,30.2-31s30.2,14.1,30.2,31c0,17.4-13.7,31-30.2,31S909.4,420.5,909.4,403.1"/>
</g>
<g>
	<path class="st7" d="M429.4,403.1c0-17,13.7-31,30.2-31s30.2,14.1,30.2,31c0,17.4-13.7,31-30.2,31S429.3,420.5,429.4,403.1"/>
	<path class="st1" d="M429.4,403.1c0-17,13.7-31,30.2-31s30.2,14.1,30.2,31c0,17.4-13.7,31-30.2,31S429.3,420.5,429.4,403.1"/>
</g>
<g>
	<path class="st8" d="M824,403.1c0-17,13.7-31,30.2-31s30.2,14.1,30.2,31c0,17.4-13.7,31-30.2,31S824,420.5,824,403.1"/>
	<path class="st1" d="M824,403.1c0-17,13.7-31,30.2-31s30.2,14.1,30.2,31c0,17.4-13.7,31-30.2,31S824,420.5,824,403.1"/>
</g>
<g>
	<path class="st4" d="M1094.7,708.4c0-45.5,36.3-82.4,80.6-82.4s80.2,36.8,80.2,82.4s-35.8,82.9-80.2,82.9S1094.7,754,1094.7,708.4"
		/>
	<path class="st1" d="M1094.7,708.4c0-45.5,36.3-82.4,80.6-82.4s80.2,36.8,80.2,82.4s-35.8,82.9-80.2,82.9S1094.7,754,1094.7,708.4"
		/>
</g>
<g>
	<path class="st2" d="M1226.3,708.4c0-45.5,36.3-82.4,80.6-82.4s80.6,36.8,80.6,82.4s-36.3,82.9-80.6,82.9S1226.3,754,1226.3,708.4"
		/>
	<path class="st1" d="M1226.3,708.4c0-45.5,36.3-82.4,80.6-82.4s80.6,36.8,80.6,82.4s-36.3,82.9-80.6,82.9S1226.3,754,1226.3,708.4"
		/>
</g>
<g>
	<path class="st0" d="M1120,1013.8c0-45.5,36.3-82.4,80.6-82.4s80.2,36.8,80.2,82.4s-35.8,82.9-80.2,82.9S1120,1059.3,1120,1013.8"
		/>
	<path class="st1" d="M1120,1013.8c0-45.5,36.3-82.4,80.6-82.4s80.2,36.8,80.2,82.4s-35.8,82.9-80.2,82.9S1120,1059.3,1120,1013.8"
		/>
</g>
<g>
	<path class="st2" d="M813.7,708.4c0-45.5,36.3-82.4,80.2-82.4c44.3,0,80.6,36.8,80.6,82.4s-36.3,82.9-80.6,82.9
		C850,791.3,813.7,754,813.7,708.4"/>
	<path class="st1" d="M813.7,708.4c0-45.5,36.3-82.4,80.2-82.4c44.3,0,80.6,36.8,80.6,82.4s-36.3,82.9-80.6,82.9
		C850,791.3,813.7,754,813.7,708.4"/>
</g>
<g>
	<path class="st2" d="M906.1,708.4c0-17,13.7-31,30.2-31c17,0,30.2,14.1,30.2,31s-13.2,31-30.2,31
		C919.8,739.4,906.1,725.4,906.1,708.4"/>
	<path class="st1" d="M906.1,708.4c0-17,13.7-31,30.2-31c17,0,30.2,14.1,30.2,31s-13.2,31-30.2,31
		C919.8,739.4,906.1,725.4,906.1,708.4"/>
</g>
<g>
	<path class="st4" d="M974,708.4c0-17,13.7-31,30.2-31s30.2,14.1,30.2,31s-13.7,31-30.2,31S974,725.4,974,708.4"/>
	<path class="st1" d="M974,708.4c0-17,13.7-31,30.2-31s30.2,14.1,30.2,31s-13.7,31-30.2,31S974,725.4,974,708.4"/>
</g>
<g>
	<path class="st2" d="M473.2,708.4c0-17,13.7-31,30.2-31c17,0,30.2,14.1,30.2,31s-13.2,31-30.2,31
		C486.9,739.4,473.2,725.4,473.2,708.4"/>
	<path class="st1" d="M473.2,708.4c0-17,13.7-31,30.2-31c17,0,30.2,14.1,30.2,31s-13.2,31-30.2,31
		C486.9,739.4,473.2,725.4,473.2,708.4"/>
</g>
<g>
	<path class="st2" d="M892.5,708.4c0-17,13.7-31,30.2-31s30.2,14.1,30.2,31s-13.7,31-30.2,31S892.5,725.4,892.5,708.4"/>
	<path class="st1" d="M892.5,708.4c0-17,13.7-31,30.2-31s30.2,14.1,30.2,31s-13.7,31-30.2,31S892.5,725.4,892.5,708.4"/>
</g>
<g>
	<path class="st4" d="M934,708.4c0-17,13.2-31,30.2-31c16.5,0,29.7,14.1,29.7,31s-13.2,31-29.7,31C947.2,739.4,934,725.4,934,708.4"
		/>
	<path class="st1" d="M934,708.4c0-17,13.2-31,30.2-31c16.5,0,29.7,14.1,29.7,31s-13.2,31-29.7,31C947.2,739.4,934,725.4,934,708.4"
		/>
</g>
<g>
	<path class="st5" d="M742,708.4c0-17,13.7-31,30.2-31s30.2,14.1,30.2,31s-13.7,31-30.2,31S742,725.4,742,708.4"/>
	<path class="st1" d="M742,708.4c0-17,13.7-31,30.2-31s30.2,14.1,30.2,31s-13.7,31-30.2,31S742,725.4,742,708.4"/>
</g>
<g>
	<path class="st2" d="M901.9,708.4c0-17,13.7-31,30.2-31s30.2,14.1,30.2,31s-13.7,31-30.2,31S901.9,725.4,901.9,708.4"/>
	<path class="st1" d="M901.9,708.4c0-17,13.7-31,30.2-31s30.2,14.1,30.2,31s-13.7,31-30.2,31S901.9,725.4,901.9,708.4"/>
</g>
<g>
	<path class="st2" d="M950.9,708.4c0-17,13.2-31,30.2-31c16.5,0,29.7,14.1,29.7,31s-13.2,31-29.7,31
		C964.1,739.4,950.9,725.4,950.9,708.4"/>
	<path class="st1" d="M950.9,708.4c0-17,13.2-31,30.2-31c16.5,0,29.7,14.1,29.7,31s-13.2,31-29.7,31
		C964.1,739.4,950.9,725.4,950.9,708.4"/>
</g>
<g>
	<path class="st3" d="M955.2,708.4c0-17,13.7-31,30.2-31s30.2,14.1,30.2,31s-13.7,31-30.2,31S955.2,725.4,955.2,708.4"/>
	<path class="st1" d="M955.2,708.4c0-17,13.7-31,30.2-31s30.2,14.1,30.2,31s-13.7,31-30.2,31S955.2,725.4,955.2,708.4"/>
</g>
<g>
	<path class="st4" d="M801,708.4c0-17,13.7-31,30.2-31s30.2,14.1,30.2,31s-13.7,31-30.2,31S801,725.4,801,708.4"/>
	<path class="st1" d="M801,708.4c0-17,13.7-31,30.2-31s30.2,14.1,30.2,31s-13.7,31-30.2,31S801,725.4,801,708.4"/>
</g>
<g>
	<path class="st5" d="M313.8,708.4c0-17,13.7-31,30.2-31s30.2,14.1,30.2,31s-13.7,31-30.2,31S313.8,725.4,313.8,708.4"/>
	<path class="st1" d="M313.8,708.4c0-17,13.7-31,30.2-31s30.2,14.1,30.2,31s-13.7,31-30.2,31S313.8,725.4,313.8,708.4"/>
</g>
<g>
	<path class="st4" d="M349.2,708.4c0-17,13.2-31,30.2-31c16.5,0,30.2,14.1,30.2,31s-13.7,31-30.2,31
		C362.4,739.4,349.2,725.4,349.2,708.4"/>
	<path class="st1" d="M349.2,708.4c0-17,13.2-31,30.2-31c16.5,0,30.2,14.1,30.2,31s-13.7,31-30.2,31
		C362.4,739.4,349.2,725.4,349.2,708.4"/>
</g>
<g>
	<path class="st2" d="M896.7,708.4c0-17,13.7-31,30.2-31s30.2,14.1,30.2,31s-13.7,31-30.2,31S896.7,725.4,896.7,708.4"/>
	<path class="st1" d="M896.7,708.4c0-17,13.7-31,30.2-31s30.2,14.1,30.2,31s-13.7,31-30.2,31S896.7,725.4,896.7,708.4"/>
</g>
<g>
	<path class="st3" d="M543,708.4c0-17,13.7-31,30.2-31s30.2,14.1,30.2,31s-13.7,31-30.2,31S543,725.4,543,708.4"/>
	<path class="st1" d="M543,708.4c0-17,13.7-31,30.2-31s30.2,14.1,30.2,31s-13.7,31-30.2,31S543,725.4,543,708.4"/>
</g>
<g>
	<path class="st8" d="M618.9,708.4c0-17,13.7-31,30.2-31s30.2,14.1,30.2,31s-13.7,31-30.2,31S618.9,725.4,618.9,708.4"/>
	<path class="st1" d="M618.9,708.4c0-17,13.7-31,30.2-31s30.2,14.1,30.2,31s-13.7,31-30.2,31S618.9,725.4,618.9,708.4"/>
</g>
<g>
	<path class="st2" d="M907.1,1013.8c0-45.5,35.8-82.9,80.2-82.9c44.3,0,80.6,37.3,80.6,82.9c0,45.5-36.3,82.9-80.6,82.9
		S907.1,1059.3,907.1,1013.8"/>
	<path class="st1" d="M907.1,1013.8c0-45.5,35.8-82.9,80.2-82.9c44.3,0,80.6,37.3,80.6,82.9c0,45.5-36.3,82.9-80.6,82.9
		S907.1,1059.3,907.1,1013.8"/>
</g>
<g>
	<path class="st2" d="M997.6,1013.8c0-17,13.2-31,30.2-31c16.5,0,29.7,14.1,29.7,31c0,17-13.2,31-29.7,31
		C1010.8,1044.8,997.6,1030.7,997.6,1013.8"/>
	<path class="st1" d="M997.6,1013.8c0-17,13.2-31,30.2-31c16.5,0,29.7,14.1,29.7,31c0,17-13.2,31-29.7,31
		C1010.8,1044.8,997.6,1030.7,997.6,1013.8"/>
</g>
<g>
	<path class="st4" d="M787.3,1013.8c0-17,13.7-31,30.2-31s30.2,14.1,30.2,31c0,17-13.7,31-30.2,31S787.3,1030.7,787.3,1013.8"/>
	<path class="st1" d="M787.3,1013.8c0-17,13.7-31,30.2-31s30.2,14.1,30.2,31c0,17-13.7,31-30.2,31S787.3,1030.7,787.3,1013.8"/>
</g>
<g>
	<path class="st7" d="M1283.8,1013.8c0-17,13.2-31,30.2-31c16.5,0,29.7,14.1,29.7,31c0,17-13.2,31-29.7,31
		C1297,1044.8,1283.8,1030.7,1283.8,1013.8"/>
	<path class="st1" d="M1283.8,1013.8c0-17,13.2-31,30.2-31c16.5,0,29.7,14.1,29.7,31c0,17-13.2,31-29.7,31
		C1297,1044.8,1283.8,1030.7,1283.8,1013.8"/>
</g>
<g>
	<path class="st2" d="M910.8,1013.8c0-17,13.7-31,30.2-31c17,0,30.2,14.1,30.2,31c0,17-13.2,31-30.2,31
		C924.5,1044.8,910.8,1030.7,910.8,1013.8"/>
	<path class="st1" d="M910.8,1013.8c0-17,13.7-31,30.2-31c17,0,30.2,14.1,30.2,31c0,17-13.2,31-30.2,31
		C924.5,1044.8,910.8,1030.7,910.8,1013.8"/>
</g>
<g>
	<path class="st2" d="M681.2,1013.8c0-17,13.2-31,30.2-31c16.5,0,29.7,14.1,29.7,31c0,17-13.2,31-29.7,31
		C694.4,1044.8,681.2,1030.7,681.2,1013.8"/>
	<path class="st1" d="M681.2,1013.8c0-17,13.2-31,30.2-31c16.5,0,29.7,14.1,29.7,31c0,17-13.2,31-29.7,31
		C694.4,1044.8,681.2,1030.7,681.2,1013.8"/>
</g>
<g>
	<path class="st6" d="M406.2,1014.3c0-17,13.7-31,30.2-31s30.2,14.1,30.2,31c0,17-13.7,31-30.2,31S406.2,1031.2,406.2,1014.3"/>
	<path class="st1" d="M406.2,1014.3c0-17,13.7-31,30.2-31s30.2,14.1,30.2,31c0,17-13.7,31-30.2,31S406.2,1031.2,406.2,1014.3"/>
</g>
<g>
	<path class="st7" d="M530.8,1013.8c0-17,13.7-31,30.2-31s30.2,14.1,30.2,31c0,17-13.7,31-30.2,31S530.8,1030.7,530.8,1013.8"/>
	<path class="st1" d="M530.8,1013.8c0-17,13.7-31,30.2-31s30.2,14.1,30.2,31c0,17-13.7,31-30.2,31S530.8,1030.7,530.8,1013.8"/>
</g>
<g>
	<path class="st4" d="M628.9,1013.8c0-17,13.7-31,30.2-31s30.2,14.1,30.2,31c0,17-13.7,31-30.2,31S628.9,1030.7,628.9,1013.8"/>
	<path class="st1" d="M628.9,1013.8c0-17,13.7-31,30.2-31s30.2,14.1,30.2,31c0,17-13.7,31-30.2,31S628.9,1030.7,628.9,1013.8"/>
</g>
<g>
	<path class="st2" d="M908,1013.8c0-17,13.7-31,30.2-31s30.2,14.1,30.2,31c0,17-13.7,31-30.2,31S908,1030.7,908,1013.8"/>
	<path class="st1" d="M908,1013.8c0-17,13.7-31,30.2-31s30.2,14.1,30.2,31c0,17-13.7,31-30.2,31S908,1030.7,908,1013.8"/>
</g>
<g>
	<path class="st2" d="M806.6,1013.8c0-17,13.7-31,30.2-31s30.2,14.1,30.2,31c0,17-13.7,31-30.2,31S806.6,1030.7,806.6,1013.8"/>
	<path class="st1" d="M806.6,1013.8c0-17,13.7-31,30.2-31s30.2,14.1,30.2,31c0,17-13.7,31-30.2,31S806.6,1030.7,806.6,1013.8"/>
</g>
<g>
	<path class="st2" d="M1137.7,1013.8c0-17,13.2-31,29.7-31c17,0,30.2,14.1,30.2,31c0,17-13.2,31-30.2,31
		C1150.9,1044.8,1137.7,1030.7,1137.7,1013.8"/>
	<path class="st1" d="M1137.7,1013.8c0-17,13.2-31,29.7-31c17,0,30.2,14.1,30.2,31c0,17-13.2,31-30.2,31
		C1150.9,1044.8,1137.7,1030.7,1137.7,1013.8"/>
</g>
<g>
	<path class="st7" d="M709,1013.8c0-17,13.7-31,30.2-31c17,0,30.2,14.1,30.2,31c0,17-13.2,31-30.2,31
		C722.7,1044.8,709,1030.7,709,1013.8"/>
	<path class="st1" d="M709,1013.8c0-17,13.7-31,30.2-31c17,0,30.2,14.1,30.2,31c0,17-13.2,31-30.2,31
		C722.7,1044.8,709,1030.7,709,1013.8"/>
</g>
<g>
	<path class="st4" d="M594.4,1013.8c0-17,13.2-31,30.2-31c16.5,0,30.2,14.1,30.2,31c0,17-13.7,31-30.2,31
		C607.6,1044.8,594.4,1030.7,594.4,1013.8"/>
	<path class="st1" d="M594.4,1013.8c0-17,13.2-31,30.2-31c16.5,0,30.2,14.1,30.2,31c0,17-13.7,31-30.2,31
		C607.6,1044.8,594.4,1030.7,594.4,1013.8"/>
</g>
<g class="st9">
	<path class="st10" d="M854.2,39.3c2.8,55.8,4.7,111.6,6.7,167.4c-0.7,109.8-2.1,388.2-2.7,502c-2.5,192.9,2.5,479.1-11,669.3
		c-11.5-189.3-3.5-477.2-4-669.4c0.6-115.1,2.1-390.6,2.6-502C848.3,150.8,850.8,95.1,854.2,39.3L854.2,39.3L854.2,39.3z"/>
</g>
<g class="st9">
	<g>
		<line class="st11" x1="852.9" y1="229.2" x2="1546.9" y2="225.8"/>
		<polygon class="st12" points="1517.2,251.4 1542.5,225.8 1516.9,200.5 1538.5,200.4 1564.1,225.7 1538.8,251.3 		"/>
	</g>
</g>
<g class="st9">
	<g>
		<line class="st13" x1="152.9" y1="1191.5" x2="846.9" y2="1188.1"/>
		<polygon class="st14" points="182.9,1216.8 157.3,1191.5 182.6,1166 161,1166.1 135.7,1191.6 161.3,1216.9 		"/>
	</g>
</g>
<text transform="matrix(1 0 0 1 1052.932 164.589)" class="st10 st15 st16">PHENOME</text>
<text transform="matrix(1 0 0 1 206.781 1301.282)" class="st10 st15 st16">ORAL MICROBIOME</text>
</svg>
