<?xml version="1.0" encoding="UTF-8"?>
<svg id="a" data-name="Layer 1" xmlns="http://www.w3.org/2000/svg" viewBox="0 0 1559.055 1133.858">
  <defs>
    <style>
      .c {
        font-family: ArialRoundedMTBold, 'Arial Rounded MT Bold';
        font-size: 59px;
      }

      .c, .d, .e {
        opacity: .9;
      }

      .c, .e {
        fill: #e6e6e6;
        stroke: #999;
      }

      .f {
        fill: #006837;
      }

      .g {
        fill: gray;
      }

      .h {
        fill: #29abe2;
      }

      .i, .j, .k, .l, .m, .n, .o, .p, .q, .r {
        stroke-width: 15px;
      }

      .i, .j, .l, .m, .n, .o, .p, .q, .r {
        opacity: .502;
        stroke: #000;
      }

      .i, .e, .s, .k {
        stroke-linecap: round;
        stroke-linejoin: round;
      }

      .i, .s, .k {
        fill: none;
      }

      .j {
        fill: #f0e442;
      }

      .j, .l, .m, .n, .o, .p, .q, .r {
        stroke-miterlimit: 10;
      }

      .t {
        opacity: .45;
      }

      .e {
        stroke-dasharray: 0 0 11.999 42.52;
      }

      .e, .s {
        stroke-width: 15.001px;
      }

      .s {
        stroke: #006837;
      }

      .u {
        letter-spacing: -.038em;
      }

      .v {
        letter-spacing: 0em;
      }

      .k {
        stroke: #29abe2;
      }

      .l {
        fill: #e69f00;
      }

      .m {
        fill: #009e73;
      }

      .n {
        fill: #c67;
      }

      .o {
        fill: #d55e00;
      }

      .p {
        fill: #173;
      }

      .q {
        fill: #8ce;
      }

      .r {
        fill: #56b4e9;
      }
    </style>
  </defs>
  <g>
    <path class="o" d="m450.433,872.041c0-73.654,58.47-134.224,130.614-134.224s130.614,60.57,130.614,134.224c0,74.138-58.47,134.709-130.614,134.709s-130.614-60.57-130.614-134.709"/>
    <path class="i" d="m450.433,872.041c0-73.654,58.47-134.224,130.614-134.224s130.614,60.57,130.614,134.224c0,74.138-58.47,134.709-130.614,134.709s-130.614-60.57-130.614-134.709"/>
  </g>
  <g>
    <path class="l" d="m744.669,261.333c0-73.654,58.942-134.224,131.086-134.224,71.674,0,130.615,60.57,130.615,134.224,0,74.138-58.942,134.709-130.615,134.709-72.144,0-131.086-60.57-131.086-134.709"/>
    <path class="i" d="m744.669,261.333c0-73.654,58.942-134.224,131.086-134.224,71.674,0,130.615,60.57,130.615,134.224,0,74.138-58.942,134.709-130.615,134.709-72.144,0-131.086-60.57-131.086-134.709"/>
  </g>
  <g>
    <path class="n" d="m459.865,261.333c0-45.064,36.307-82.376,80.632-82.376s80.632,37.311,80.632,82.376c0,45.549-36.307,82.86-80.632,82.86s-80.632-37.311-80.632-82.86"/>
    <path class="i" d="m459.865,261.333c0-45.064,36.307-82.376,80.632-82.376s80.632,37.311,80.632,82.376c0,45.549-36.307,82.86-80.632,82.86s-80.632-37.311-80.632-82.86"/>
  </g>
  <g>
    <path class="l" d="m388.191,261.333c0-45.064,36.309-82.376,80.633-82.376s80.632,37.311,80.632,82.376c0,45.549-36.309,82.86-80.632,82.86s-80.633-37.311-80.633-82.86"/>
    <path class="i" d="m388.191,261.333c0-45.064,36.309-82.376,80.633-82.376s80.632,37.311,80.632,82.376c0,45.549-36.309,82.86-80.632,82.86s-80.633-37.311-80.633-82.86"/>
  </g>
  <g>
    <path class="r" d="m1120.01,261.333c0-45.064,36.307-82.376,80.632-82.376s80.16,37.311,80.16,82.376c0,45.549-35.835,82.86-80.16,82.86s-80.632-37.311-80.632-82.86"/>
    <path class="i" d="m1120.01,261.333c0-45.064,36.307-82.376,80.632-82.376s80.16,37.311,80.16,82.376c0,45.549-35.835,82.86-80.16,82.86s-80.632-37.311-80.632-82.86"/>
  </g>
  <g>
    <path class="r" d="m702.703,261.333c0-45.064,36.307-82.376,80.16-82.376,44.324,0,80.633,37.311,80.633,82.376,0,45.549-36.309,82.86-80.633,82.86-43.852,0-80.16-37.311-80.16-82.86"/>
    <path class="i" d="m702.703,261.333c0-45.064,36.307-82.376,80.16-82.376,44.324,0,80.633,37.311,80.633,82.376,0,45.549-36.309,82.86-80.633,82.86-43.852,0-80.16-37.311-80.16-82.86"/>
  </g>
  <g>
    <path class="l" d="m752.686,261.333c0-45.064,35.837-82.376,80.16-82.376s80.633,37.311,80.633,82.376c0,45.549-36.309,82.86-80.633,82.86s-80.16-37.311-80.16-82.86"/>
    <path class="i" d="m752.686,261.333c0-45.064,35.837-82.376,80.16-82.376s80.633,37.311,80.633,82.376c0,45.549-36.309,82.86-80.633,82.86s-80.16-37.311-80.16-82.86"/>
  </g>
  <g>
    <path class="n" d="m566.666,261.09c0-45.064,36.307-82.376,80.632-82.376s80.161,37.311,80.161,82.376c0,45.549-35.837,82.86-80.161,82.86s-80.632-37.311-80.632-82.86"/>
    <path class="i" d="m566.666,261.09c0-45.064,36.307-82.376,80.632-82.376s80.161,37.311,80.161,82.376c0,45.549-35.837,82.86-80.161,82.86s-80.632-37.311-80.632-82.86"/>
  </g>
  <g>
    <path class="r" d="m731.938,261.333c0-45.064,36.307-82.376,80.632-82.376s80.633,37.311,80.633,82.376c0,45.549-36.309,82.86-80.633,82.86s-80.632-37.311-80.632-82.86"/>
    <path class="i" d="m731.938,261.333c0-45.064,36.307-82.376,80.632-82.376s80.633,37.311,80.633,82.376c0,45.549-36.309,82.86-80.633,82.86s-80.632-37.311-80.632-82.86"/>
  </g>
  <g>
    <path class="j" d="m1011.321,261.333c0-45.064,36.309-82.376,80.633-82.376s80.632,37.311,80.632,82.376c0,45.549-36.309,82.86-80.632,82.86s-80.633-37.311-80.633-82.86"/>
    <path class="i" d="m1011.321,261.333c0-45.064,36.309-82.376,80.633-82.376s80.632,37.311,80.632,82.376c0,45.549-36.309,82.86-80.632,82.86s-80.633-37.311-80.633-82.86"/>
  </g>
  <g>
    <path class="q" d="m311.373,566.687c0-45.064,36.307-82.376,80.632-82.376s80.161,37.311,80.161,82.376c0,45.549-35.837,82.86-80.161,82.86s-80.632-37.311-80.632-82.86"/>
    <path class="i" d="m311.373,566.687c0-45.064,36.307-82.376,80.632-82.376s80.161,37.311,80.161,82.376c0,45.549-35.837,82.86-80.161,82.86s-80.632-37.311-80.632-82.86"/>
  </g>
  <g>
    <path class="r" d="m798.896,261.333c0-16.96,13.673-31.012,30.177-31.012s30.179,14.052,30.179,31.012c0,17.444-13.675,31.012-30.179,31.012s-30.177-13.568-30.177-31.012"/>
    <path class="i" d="m798.896,261.333c0-16.96,13.673-31.012,30.177-31.012s30.179,14.052,30.179,31.012c0,17.444-13.675,31.012-30.179,31.012s-30.177-13.568-30.177-31.012"/>
  </g>
  <g>
    <path class="l" d="m541.439,261.333c0-16.96,13.203-31.012,30.179-31.012,16.504,0,30.177,14.052,30.177,31.012,0,17.444-13.673,31.012-30.177,31.012-16.976,0-30.179-13.568-30.179-31.012"/>
    <path class="i" d="m541.439,261.333c0-16.96,13.203-31.012,30.179-31.012,16.504,0,30.177,14.052,30.177,31.012,0,17.444-13.673,31.012-30.177,31.012-16.976,0-30.179-13.568-30.179-31.012"/>
  </g>
  <g>
    <path class="l" d="m365.558,261.333c0-16.96,13.673-31.012,30.177-31.012,16.976,0,30.179,14.052,30.179,31.012,0,17.444-13.203,31.012-30.179,31.012-16.504,0-30.177-13.568-30.177-31.012"/>
    <path class="i" d="m365.558,261.333c0-16.96,13.673-31.012,30.177-31.012,16.976,0,30.179,14.052,30.179,31.012,0,17.444-13.203,31.012-30.179,31.012-16.504,0-30.177-13.568-30.177-31.012"/>
  </g>
  <g>
    <path class="l" d="m352.826,261.333c0-16.96,13.675-31.012,30.179-31.012s30.177,14.052,30.177,31.012c0,17.444-13.673,31.012-30.177,31.012s-30.179-13.568-30.179-31.012"/>
    <path class="i" d="m352.826,261.333c0-16.96,13.675-31.012,30.179-31.012s30.177,14.052,30.177,31.012c0,17.444-13.673,31.012-30.177,31.012s-30.179-13.568-30.179-31.012"/>
  </g>
  <g>
    <path class="r" d="m1012.097,261.333c0-16.96,13.674-31.012,30.178-31.012s30.178,14.052,30.178,31.012c0,17.444-13.675,31.012-30.178,31.012s-30.178-13.568-30.178-31.012"/>
    <path class="i" d="m1012.097,261.333c0-16.96,13.674-31.012,30.178-31.012s30.178,14.052,30.178,31.012c0,17.444-13.675,31.012-30.178,31.012s-30.178-13.568-30.178-31.012"/>
  </g>
  <g>
    <path class="l" d="m553.227,261.333c0-16.96,13.675-31.012,30.179-31.012s30.177,14.052,30.177,31.012c0,17.444-13.673,31.012-30.177,31.012s-30.179-13.568-30.179-31.012"/>
    <path class="i" d="m553.227,261.333c0-16.96,13.675-31.012,30.179-31.012s30.177,14.052,30.177,31.012c0,17.444-13.673,31.012-30.177,31.012s-30.179-13.568-30.179-31.012"/>
  </g>
  <g>
    <path class="r" d="m414.126,261.333c0-16.96,13.673-31.012,30.177-31.012s30.179,14.052,30.179,31.012c0,17.444-13.675,31.012-30.179,31.012s-30.177-13.568-30.177-31.012"/>
    <path class="i" d="m414.126,261.333c0-16.96,13.673-31.012,30.177-31.012s30.179,14.052,30.179,31.012c0,17.444-13.675,31.012-30.179,31.012s-30.177-13.568-30.177-31.012"/>
  </g>
  <g>
    <path class="r" d="m838.505,261.333c0-16.96,13.673-31.012,30.177-31.012s30.179,14.052,30.179,31.012c0,17.444-13.675,31.012-30.179,31.012s-30.177-13.568-30.177-31.012"/>
    <path class="i" d="m838.505,261.333c0-16.96,13.673-31.012,30.177-31.012s30.179,14.052,30.179,31.012c0,17.444-13.675,31.012-30.179,31.012s-30.177-13.568-30.177-31.012"/>
  </g>
  <g>
    <path class="m" d="m358.484,261.333c0-16.96,13.675-31.012,30.179-31.012s30.177,14.052,30.177,31.012c0,17.444-13.673,31.012-30.177,31.012s-30.179-13.568-30.179-31.012"/>
    <path class="i" d="m358.484,261.333c0-16.96,13.675-31.012,30.179-31.012s30.177,14.052,30.177,31.012c0,17.444-13.673,31.012-30.177,31.012s-30.179-13.568-30.179-31.012"/>
  </g>
  <g>
    <path class="p" d="m753.158,261.333c0-16.96,13.673-31.012,30.177-31.012s30.179,14.052,30.179,31.012c0,17.444-13.675,31.012-30.179,31.012s-30.177-13.568-30.177-31.012"/>
    <path class="i" d="m753.158,261.333c0-16.96,13.673-31.012,30.177-31.012s30.179,14.052,30.179,31.012c0,17.444-13.675,31.012-30.179,31.012s-30.177-13.568-30.177-31.012"/>
  </g>
  <g>
    <path class="r" d="m1023.876,566.687c0-45.549,36.307-82.376,80.632-82.376s80.161,36.827,80.161,82.376-35.837,82.86-80.161,82.86-80.632-37.312-80.632-82.86"/>
    <path class="i" d="m1023.876,566.687c0-45.549,36.307-82.376,80.632-82.376s80.161,36.827,80.161,82.376-35.837,82.86-80.161,82.86-80.632-37.312-80.632-82.86"/>
  </g>
  <g>
    <path class="l" d="m1155.442,566.687c0-45.549,36.308-82.376,80.632-82.376s80.632,36.827,80.632,82.376-36.307,82.86-80.632,82.86-80.632-37.312-80.632-82.86"/>
    <path class="i" d="m1155.442,566.687c0-45.549,36.308-82.376,80.632-82.376s80.632,36.827,80.632,82.376-36.307,82.86-80.632,82.86-80.632-37.312-80.632-82.86"/>
  </g>
  <g>
    <path class="o" d="m1049.13,872.041c0-45.549,36.309-82.376,80.633-82.376s80.16,36.827,80.16,82.376-35.835,82.86-80.16,82.86-80.633-37.312-80.633-82.86"/>
    <path class="i" d="m1049.13,872.041c0-45.549,36.309-82.376,80.633-82.376s80.16,36.827,80.16,82.376-35.835,82.86-80.16,82.86-80.633-37.312-80.633-82.86"/>
  </g>
  <g>
    <path class="l" d="m742.843,566.687c0-45.549,36.308-82.376,80.16-82.376,44.324,0,80.632,36.827,80.632,82.376s-36.308,82.86-80.632,82.86c-43.852,0-80.16-37.312-80.16-82.86"/>
    <path class="i" d="m742.843,566.687c0-45.549,36.308-82.376,80.16-82.376,44.324,0,80.632,36.827,80.632,82.376s-36.308,82.86-80.632,82.86c-43.852,0-80.16-37.312-80.16-82.86"/>
  </g>
  <g>
    <path class="l" d="m835.269,566.687c0-16.96,13.674-31.012,30.178-31.012,16.975,0,30.178,14.052,30.178,31.012s-13.203,31.012-30.178,31.012c-16.504,0-30.178-14.052-30.178-31.012"/>
    <path class="i" d="m835.269,566.687c0-16.96,13.674-31.012,30.178-31.012,16.975,0,30.178,14.052,30.178,31.012s-13.203,31.012-30.178,31.012c-16.504,0-30.178-14.052-30.178-31.012"/>
  </g>
  <g>
    <path class="r" d="m903.17,566.687c0-16.96,13.674-31.012,30.178-31.012s30.178,14.052,30.178,31.012-13.675,31.012-30.178,31.012-30.178-14.052-30.178-31.012"/>
    <path class="i" d="m903.17,566.687c0-16.96,13.674-31.012,30.178-31.012s30.178,14.052,30.178,31.012-13.675,31.012-30.178,31.012-30.178-14.052-30.178-31.012"/>
  </g>
  <g>
    <path class="l" d="m402.349,566.687c0-16.96,13.673-31.012,30.177-31.012,16.976,0,30.179,14.052,30.179,31.012s-13.203,31.012-30.179,31.012c-16.504,0-30.177-14.052-30.177-31.012"/>
    <path class="i" d="m402.349,566.687c0-16.96,13.673-31.012,30.177-31.012,16.976,0,30.179,14.052,30.179,31.012s-13.203,31.012-30.179,31.012c-16.504,0-30.177-14.052-30.177-31.012"/>
  </g>
  <g>
    <path class="l" d="m821.594,566.687c0-16.96,13.675-31.012,30.178-31.012s30.178,14.052,30.178,31.012-13.674,31.012-30.178,31.012-30.178-14.052-30.178-31.012"/>
    <path class="i" d="m821.594,566.687c0-16.96,13.675-31.012,30.178-31.012s30.178,14.052,30.178,31.012-13.674,31.012-30.178,31.012-30.178-14.052-30.178-31.012"/>
  </g>
  <g>
    <path class="r" d="m863.089,566.687c0-16.96,13.203-31.012,30.178-31.012,16.504,0,29.707,14.052,29.707,31.012s-13.203,31.012-29.707,31.012c-16.975,0-30.178-14.052-30.178-31.012"/>
    <path class="i" d="m863.089,566.687c0-16.96,13.203-31.012,30.178-31.012,16.504,0,29.707,14.052,29.707,31.012s-13.203,31.012-29.707,31.012c-16.975,0-30.178-14.052-30.178-31.012"/>
  </g>
  <g>
    <path class="j" d="m671.175,566.687c0-16.96,13.675-31.012,30.179-31.012s30.178,14.052,30.178,31.012-13.675,31.012-30.178,31.012-30.179-14.052-30.179-31.012"/>
    <path class="i" d="m671.175,566.687c0-16.96,13.675-31.012,30.179-31.012s30.178,14.052,30.178,31.012-13.675,31.012-30.178,31.012-30.179-14.052-30.179-31.012"/>
  </g>
  <g>
    <path class="l" d="m831.026,566.687c0-16.96,13.674-31.012,30.178-31.012s30.178,14.052,30.178,31.012-13.675,31.012-30.178,31.012-30.178-14.052-30.178-31.012"/>
    <path class="i" d="m831.026,566.687c0-16.96,13.674-31.012,30.178-31.012s30.178,14.052,30.178,31.012-13.675,31.012-30.178,31.012-30.178-14.052-30.178-31.012"/>
  </g>
  <g>
    <path class="l" d="m880.065,566.687c0-16.96,13.203-31.012,30.178-31.012,16.504,0,29.707,14.052,29.707,31.012s-13.203,31.012-29.707,31.012c-16.975,0-30.178-14.052-30.178-31.012"/>
    <path class="i" d="m880.065,566.687c0-16.96,13.203-31.012,30.178-31.012,16.504,0,29.707,14.052,29.707,31.012s-13.203,31.012-29.707,31.012c-16.975,0-30.178-14.052-30.178-31.012"/>
  </g>
  <g>
    <path class="n" d="m884.308,566.687c0-16.96,13.675-31.012,30.178-31.012s30.178,14.052,30.178,31.012-13.674,31.012-30.178,31.012-30.178-14.052-30.178-31.012"/>
    <path class="i" d="m884.308,566.687c0-16.96,13.675-31.012,30.178-31.012s30.178,14.052,30.178,31.012-13.674,31.012-30.178,31.012-30.178-14.052-30.178-31.012"/>
  </g>
  <g>
    <path class="r" d="m730.117,566.687c0-16.96,13.675-31.012,30.179-31.012s30.178,14.052,30.178,31.012-13.675,31.012-30.178,31.012-30.179-14.052-30.179-31.012"/>
    <path class="i" d="m730.117,566.687c0-16.96,13.675-31.012,30.179-31.012s30.178,14.052,30.178,31.012-13.675,31.012-30.178,31.012-30.179-14.052-30.179-31.012"/>
  </g>
  <g>
    <path class="j" d="m242.971,566.687c0-16.96,13.674-31.012,30.177-31.012s30.179,14.052,30.179,31.012-13.675,31.012-30.179,31.012-30.177-14.052-30.177-31.012"/>
    <path class="i" d="m242.971,566.687c0-16.96,13.674-31.012,30.177-31.012s30.179,14.052,30.179,31.012-13.675,31.012-30.179,31.012-30.177-14.052-30.177-31.012"/>
  </g>
  <g>
    <path class="r" d="m278.336,566.687c0-16.96,13.203-31.012,30.177-31.012,16.504,0,30.179,14.052,30.179,31.012s-13.675,31.012-30.179,31.012c-16.974,0-30.177-14.052-30.177-31.012"/>
    <path class="i" d="m278.336,566.687c0-16.96,13.203-31.012,30.177-31.012,16.504,0,30.179,14.052,30.179,31.012s-13.675,31.012-30.179,31.012c-16.974,0-30.177-14.052-30.177-31.012"/>
  </g>
  <g>
    <path class="l" d="m825.839,566.687c0-16.96,13.674-31.012,30.178-31.012s30.178,14.052,30.178,31.012-13.675,31.012-30.178,31.012-30.178-14.052-30.178-31.012"/>
    <path class="i" d="m825.839,566.687c0-16.96,13.674-31.012,30.178-31.012s30.178,14.052,30.178,31.012-13.675,31.012-30.178,31.012-30.178-14.052-30.178-31.012"/>
  </g>
  <g>
    <path class="n" d="m472.166,566.687c0-16.96,13.674-31.012,30.178-31.012s30.178,14.052,30.178,31.012-13.675,31.012-30.178,31.012-30.178-14.052-30.178-31.012"/>
    <path class="i" d="m472.166,566.687c0-16.96,13.674-31.012,30.178-31.012s30.178,14.052,30.178,31.012-13.675,31.012-30.178,31.012-30.178-14.052-30.178-31.012"/>
  </g>
  <g>
    <path class="p" d="m548.071,566.687c0-16.96,13.673-31.012,30.177-31.012s30.179,14.052,30.179,31.012-13.675,31.012-30.179,31.012-30.177-14.052-30.177-31.012"/>
    <path class="i" d="m548.071,566.687c0-16.96,13.673-31.012,30.177-31.012s30.179,14.052,30.179,31.012-13.675,31.012-30.179,31.012-30.177-14.052-30.177-31.012"/>
  </g>
  <g>
    <path class="l" d="m836.206,872.041c0-45.549,35.837-82.86,80.161-82.86s80.632,37.311,80.632,82.86-36.307,82.86-80.632,82.86-80.161-37.311-80.161-82.86"/>
    <path class="i" d="m836.206,872.041c0-45.549,35.837-82.86,80.161-82.86s80.632,37.311,80.632,82.86-36.307,82.86-80.632,82.86-80.161-37.311-80.161-82.86"/>
  </g>
  <g>
    <path class="l" d="m926.741,872.041c0-16.96,13.203-31.012,30.178-31.012,16.503,0,29.706,14.052,29.706,31.012s-13.203,31.012-29.706,31.012c-16.975,0-30.178-14.052-30.178-31.012"/>
    <path class="i" d="m926.741,872.041c0-16.96,13.203-31.012,30.178-31.012,16.503,0,29.706,14.052,29.706,31.012s-13.203,31.012-29.706,31.012c-16.975,0-30.178-14.052-30.178-31.012"/>
  </g>
  <g>
    <path class="r" d="m716.437,872.041c0-16.96,13.674-31.012,30.178-31.012s30.178,14.052,30.178,31.012-13.674,31.012-30.178,31.012-30.178-14.052-30.178-31.012"/>
    <path class="i" d="m716.437,872.041c0-16.96,13.674-31.012,30.178-31.012s30.178,14.052,30.178,31.012-13.674,31.012-30.178,31.012-30.178-14.052-30.178-31.012"/>
  </g>
  <g>
    <path class="m" d="m1212.961,872.041c0-16.96,13.203-31.012,30.177-31.012,16.504,0,29.707,14.052,29.707,31.012s-13.203,31.012-29.707,31.012c-16.974,0-30.177-14.052-30.177-31.012"/>
    <path class="i" d="m1212.961,872.041c0-16.96,13.203-31.012,30.177-31.012,16.504,0,29.707,14.052,29.707,31.012s-13.203,31.012-29.707,31.012c-16.974,0-30.177-14.052-30.177-31.012"/>
  </g>
  <g>
    <path class="l" d="m839.978,872.041c0-16.96,13.675-31.012,30.178-31.012,16.975,0,30.178,14.052,30.178,31.012s-13.203,31.012-30.178,31.012c-16.503,0-30.178-14.052-30.178-31.012"/>
    <path class="i" d="m839.978,872.041c0-16.96,13.675-31.012,30.178-31.012,16.975,0,30.178,14.052,30.178,31.012s-13.203,31.012-30.178,31.012c-16.503,0-30.178-14.052-30.178-31.012"/>
  </g>
  <g>
    <path class="l" d="m610.342,872.041c0-16.96,13.203-31.012,30.178-31.012,16.504,0,29.707,14.052,29.707,31.012s-13.203,31.012-29.707,31.012c-16.975,0-30.178-14.052-30.178-31.012"/>
    <path class="i" d="m610.342,872.041c0-16.96,13.203-31.012,30.178-31.012,16.504,0,29.707,14.052,29.707,31.012s-13.203,31.012-29.707,31.012c-16.975,0-30.178-14.052-30.178-31.012"/>
  </g>
  <g>
    <path class="q" d="m335.38,872.526c0-16.96,13.675-31.012,30.179-31.012s30.177,14.052,30.177,31.012-13.673,31.012-30.177,31.012-30.179-14.052-30.179-31.012"/>
    <path class="i" d="m335.38,872.526c0-16.96,13.675-31.012,30.179-31.012s30.177,14.052,30.177,31.012-13.673,31.012-30.177,31.012-30.179-14.052-30.179-31.012"/>
  </g>
  <g>
    <path class="m" d="m459.923,872.041c0-16.96,13.675-31.012,30.178-31.012s30.178,14.052,30.178,31.012-13.674,31.012-30.178,31.012-30.178-14.052-30.178-31.012"/>
    <path class="i" d="m459.923,872.041c0-16.96,13.675-31.012,30.178-31.012s30.178,14.052,30.178,31.012-13.674,31.012-30.178,31.012-30.178-14.052-30.178-31.012"/>
  </g>
  <g>
    <path class="r" d="m558.002,872.041c0-16.96,13.675-31.012,30.178-31.012s30.178,14.052,30.178,31.012-13.674,31.012-30.178,31.012-30.178-14.052-30.178-31.012"/>
    <path class="i" d="m558.002,872.041c0-16.96,13.675-31.012,30.178-31.012s30.178,14.052,30.178,31.012-13.674,31.012-30.178,31.012-30.178-14.052-30.178-31.012"/>
  </g>
  <g>
    <path class="l" d="m837.149,872.041c0-16.96,13.675-31.012,30.178-31.012s30.178,14.052,30.178,31.012-13.674,31.012-30.178,31.012-30.178-14.052-30.178-31.012"/>
    <path class="i" d="m837.149,872.041c0-16.96,13.675-31.012,30.178-31.012s30.178,14.052,30.178,31.012-13.674,31.012-30.178,31.012-30.178-14.052-30.178-31.012"/>
  </g>
  <g>
    <path class="l" d="m735.77,872.041c0-16.96,13.674-31.012,30.178-31.012s30.178,14.052,30.178,31.012-13.675,31.012-30.178,31.012-30.178-14.052-30.178-31.012"/>
    <path class="i" d="m735.77,872.041c0-16.96,13.674-31.012,30.178-31.012s30.178,14.052,30.178,31.012-13.675,31.012-30.178,31.012-30.178-14.052-30.178-31.012"/>
  </g>
  <g>
    <path class="l" d="m1066.815,872.041c0-16.96,13.203-31.012,29.706-31.012,16.975,0,30.178,14.052,30.178,31.012s-13.203,31.012-30.178,31.012c-16.503,0-29.706-14.052-29.706-31.012"/>
    <path class="i" d="m1066.815,872.041c0-16.96,13.203-31.012,29.706-31.012,16.975,0,30.178,14.052,30.178,31.012s-13.203,31.012-30.178,31.012c-16.503,0-29.706-14.052-29.706-31.012"/>
  </g>
  <g>
    <path class="m" d="m638.162,872.041c0-16.96,13.675-31.012,30.178-31.012,16.975,0,30.178,14.052,30.178,31.012s-13.203,31.012-30.178,31.012c-16.503,0-30.178-14.052-30.178-31.012"/>
    <path class="i" d="m638.162,872.041c0-16.96,13.675-31.012,30.178-31.012,16.975,0,30.178,14.052,30.178,31.012s-13.203,31.012-30.178,31.012c-16.503,0-30.178-14.052-30.178-31.012"/>
  </g>
  <g>
    <path class="r" d="m523.58,872.041c0-16.96,13.203-31.012,30.178-31.012,16.503,0,30.178,14.052,30.178,31.012s-13.675,31.012-30.178,31.012c-16.975,0-30.178-14.052-30.178-31.012"/>
    <path class="i" d="m523.58,872.041c0-16.96,13.203-31.012,30.178-31.012,16.503,0,30.178,14.052,30.178,31.012s-13.675,31.012-30.178,31.012c-16.975,0-30.178-14.052-30.178-31.012"/>
  </g>
  <line class="e" x1="781.997" y1="99.633" x2="777.166" y2="1013.983"/>
  <g class="t">
    <g>
      <line class="s" x1="528.141" y1="424.302" x2="1477.735" y2="424.302"/>
      <polygon class="f" points="1447.856 449.734 1473.302 424.302 1447.856 398.871 1469.45 398.871 1494.881 424.302 1469.45 449.734 1447.856 449.734"/>
    </g>
  </g>
  <g class="t">
    <g>
      <line class="k" x1="80.385" y1="711.267" x2="1028.602" y2="711.267"/>
      <polygon class="h" points="110.263 736.697 84.818 711.267 110.263 685.838 88.67 685.838 63.241 711.267 88.67 736.697 110.263 736.697"/>
    </g>
  </g>
  <text class="c" transform="translate(1226.648 394.041)"><tspan x="0" y="0">Phenome</tspan></text>
  <text class="c" transform="translate(607.866 78.516)"><tspan x="0" y="0" xml:space="preserve"> Mic</tspan><tspan class="u" x="114.946" y="0">r</tspan><tspan x="138.541" y="0">obiome</tspan></text>
  <text class="c" transform="translate(59.255 782.179)"><tspan x="0" y="0">Exposome</tspan></text>
  <text class="c" transform="translate(627.591 1110.157)"><tspan x="0" y="0" xml:space="preserve"> Ch</tspan><tspan class="u" x="94.06" y="0">r</tspan><tspan class="v" x="117.654" y="0">onome</tspan></text>
  <g id="b" data-name="K8VCHd.tif" class="d">
    <path class="g" d="m783.884,1038.67c4.619,4.544,9.177,9.028,13.735,13.511-.063.107-.159.062-.235.062-5.432.05-10.863.095-16.295.15-.206.002-.312-.104-.433-.223-1.87-1.84-3.739-3.681-5.609-5.521-3.312-3.259-6.623-6.518-9.935-9.777-1.302-1.281-2.598-2.569-3.913-3.836-.23-.222-.2-.325.007-.534,2.615-2.638,5.221-5.286,7.827-7.933,3.097-3.144,6.193-6.29,9.288-9.436.653-.664,1.311-1.324,1.953-1.999.184-.194.376-.27.642-.272,4.034-.029,8.068-.07,12.101-.101,1.408-.011,2.816-.002,4.317-.002-4.591,4.663-9.137,9.28-13.754,13.97.56-.034,1.019-.059,1.477-.091,3.289-.23,6.574-.503,9.846-.927,4.108-.532,8.186-1.227,12.223-2.155,6.328-1.455,12.506-3.361,18.371-6.188,3.199-1.542,6.247-3.332,8.965-5.641,1.418-1.204,2.684-2.549,3.703-4.112.833-1.279,1.409-2.66,1.569-4.191.211-2.017-.409-3.825-1.446-5.51-1.138-1.848-2.647-3.369-4.322-4.728-3.417-2.772-7.265-4.805-11.294-6.516-6.339-2.692-12.944-4.482-19.693-5.782-3.755-.723-7.536-1.272-11.338-1.67-4.954-.519-9.922-.777-14.903-.786-4.07-.008-8.135.134-12.193.456-4.522.359-9.019.907-13.483,1.716-7.843,1.422-15.507,3.452-22.789,6.763-3.367,1.531-6.589,3.314-9.49,5.63-1.607,1.283-3.068,2.714-4.232,4.42-1.119,1.642-1.78,3.427-1.824,5.453-.066,3.05-2.46,5.502-5.498,5.744-2.986.238-5.693-1.805-6.296-4.773-.227-1.119-.127-2.249.006-3.37.607-5.106,2.99-9.349,6.415-13.07,3.196-3.472,6.989-6.174,11.084-8.473,5.475-3.074,11.295-5.308,17.304-7.076,5.472-1.61,11.04-2.78,16.679-3.626,5.314-.797,10.654-1.298,16.021-1.547,5.467-.254,10.934-.252,16.399.03,10.284.531,20.434,1.944,30.375,4.696,6.154,1.704,12.125,3.891,17.767,6.911,4.478,2.397,8.62,5.257,12.104,8.992,2.792,2.993,4.927,6.378,5.969,10.372,1.337,5.126.614,10.007-1.863,14.655-1.779,3.338-4.255,6.101-7.111,8.54-4.203,3.589-8.966,6.266-14,8.487-6.085,2.683-12.418,4.595-18.9,6.034-4.44.986-8.922,1.728-13.437,2.267-3.128.374-6.265.657-9.41.838-.782.045-1.563.107-2.45.169Z"/>
  </g>
</svg>