<?xml version="1.0" encoding="UTF-8"?>
<svg id="a" data-name="Layer 1" xmlns="http://www.w3.org/2000/svg" viewBox="0 0 1559.055 1133.858">
  <defs>
    <style>
      .c {
        fill: #006837;
      }

      .d {
        fill: #29abe2;
      }

      .e, .f, .g, .h, .i, .j, .k, .l, .m, .n {
        stroke: #000;
      }

      .e, .f, .o, .p {
        fill: none;
        stroke-linecap: round;
        stroke-linejoin: round;
      }

      .e, .g, .p, .h, .i, .j, .k, .l, .m, .n {
        stroke-width: 15px;
      }

      .e, .g, .h, .i, .j, .k, .l, .m, .n {
        opacity: .502;
      }

      .f {
        stroke-dasharray: 0 0 11.999 42.52;
      }

      .f, .q, .r {
        opacity: .6;
      }

      .f, .o {
        stroke-width: 15.001px;
      }

      .g {
        fill: #f0e442;
      }

      .g, .h, .i, .j, .k, .l, .m, .n {
        stroke-miterlimit: 10;
      }

      .s {
        opacity: .6;
      }

      .o {
        stroke: #006837;
      }

      .t {
        letter-spacing: -.038em;
      }

      .u {
        letter-spacing: 0em;
      }

      .p {
        stroke: #29abe2;
      }

      .h {
        fill: #e69f00;
      }

      .i {
        fill: #009e73;
      }

      .j {
        fill: #c67;
      }

      .k {
        fill: #d55e00;
      }

      .l {
        fill: #173;
      }

      .r {
        font-family: ArialRoundedMTBold, 'Arial Rounded MT Bold';
        font-size: 59px;
      }

      .m {
        fill: #8ce;
      }

      .n {
        fill: #56b4e9;
      }
    </style>
  </defs>
  <g>
    <path class="k" d="m450.433,872.041c0-73.654,58.47-134.224,130.614-134.224s130.614,60.57,130.614,134.224c0,74.138-58.47,134.709-130.614,134.709s-130.614-60.57-130.614-134.709"/>
    <path class="e" d="m450.433,872.041c0-73.654,58.47-134.224,130.614-134.224s130.614,60.57,130.614,134.224c0,74.138-58.47,134.709-130.614,134.709s-130.614-60.57-130.614-134.709"/>
  </g>
  <g>
    <path class="h" d="m744.669,261.333c0-73.654,58.942-134.224,131.086-134.224,71.674,0,130.615,60.57,130.615,134.224,0,74.138-58.942,134.709-130.615,134.709-72.144,0-131.086-60.57-131.086-134.709"/>
    <path class="e" d="m744.669,261.333c0-73.654,58.942-134.224,131.086-134.224,71.674,0,130.615,60.57,130.615,134.224,0,74.138-58.942,134.709-130.615,134.709-72.144,0-131.086-60.57-131.086-134.709"/>
  </g>
  <g>
    <path class="j" d="m459.865,261.333c0-45.064,36.307-82.376,80.632-82.376s80.632,37.311,80.632,82.376c0,45.549-36.307,82.86-80.632,82.86s-80.632-37.311-80.632-82.86"/>
    <path class="e" d="m459.865,261.333c0-45.064,36.307-82.376,80.632-82.376s80.632,37.311,80.632,82.376c0,45.549-36.307,82.86-80.632,82.86s-80.632-37.311-80.632-82.86"/>
  </g>
  <g>
    <path class="h" d="m388.191,261.333c0-45.064,36.309-82.376,80.633-82.376s80.632,37.311,80.632,82.376c0,45.549-36.309,82.86-80.632,82.86s-80.633-37.311-80.633-82.86"/>
    <path class="e" d="m388.191,261.333c0-45.064,36.309-82.376,80.633-82.376s80.632,37.311,80.632,82.376c0,45.549-36.309,82.86-80.632,82.86s-80.633-37.311-80.633-82.86"/>
  </g>
  <g>
    <path class="n" d="m1120.01,261.333c0-45.064,36.307-82.376,80.632-82.376s80.16,37.311,80.16,82.376c0,45.549-35.835,82.86-80.16,82.86s-80.632-37.311-80.632-82.86"/>
    <path class="e" d="m1120.01,261.333c0-45.064,36.307-82.376,80.632-82.376s80.16,37.311,80.16,82.376c0,45.549-35.835,82.86-80.16,82.86s-80.632-37.311-80.632-82.86"/>
  </g>
  <g>
    <path class="n" d="m702.703,261.333c0-45.064,36.307-82.376,80.16-82.376,44.324,0,80.633,37.311,80.633,82.376,0,45.549-36.309,82.86-80.633,82.86-43.852,0-80.16-37.311-80.16-82.86"/>
    <path class="e" d="m702.703,261.333c0-45.064,36.307-82.376,80.16-82.376,44.324,0,80.633,37.311,80.633,82.376,0,45.549-36.309,82.86-80.633,82.86-43.852,0-80.16-37.311-80.16-82.86"/>
  </g>
  <g>
    <path class="h" d="m752.686,261.333c0-45.064,35.837-82.376,80.16-82.376s80.633,37.311,80.633,82.376c0,45.549-36.309,82.86-80.633,82.86s-80.16-37.311-80.16-82.86"/>
    <path class="e" d="m752.686,261.333c0-45.064,35.837-82.376,80.16-82.376s80.633,37.311,80.633,82.376c0,45.549-36.309,82.86-80.633,82.86s-80.16-37.311-80.16-82.86"/>
  </g>
  <g>
    <path class="j" d="m566.666,261.09c0-45.064,36.307-82.376,80.632-82.376s80.161,37.311,80.161,82.376c0,45.549-35.837,82.86-80.161,82.86s-80.632-37.311-80.632-82.86"/>
    <path class="e" d="m566.666,261.09c0-45.064,36.307-82.376,80.632-82.376s80.161,37.311,80.161,82.376c0,45.549-35.837,82.86-80.161,82.86s-80.632-37.311-80.632-82.86"/>
  </g>
  <g>
    <path class="n" d="m731.938,261.333c0-45.064,36.307-82.376,80.632-82.376s80.633,37.311,80.633,82.376c0,45.549-36.309,82.86-80.633,82.86s-80.632-37.311-80.632-82.86"/>
    <path class="e" d="m731.938,261.333c0-45.064,36.307-82.376,80.632-82.376s80.633,37.311,80.633,82.376c0,45.549-36.309,82.86-80.633,82.86s-80.632-37.311-80.632-82.86"/>
  </g>
  <g>
    <path class="g" d="m1011.321,261.333c0-45.064,36.309-82.376,80.633-82.376s80.632,37.311,80.632,82.376c0,45.549-36.309,82.86-80.632,82.86s-80.633-37.311-80.633-82.86"/>
    <path class="e" d="m1011.321,261.333c0-45.064,36.309-82.376,80.633-82.376s80.632,37.311,80.632,82.376c0,45.549-36.309,82.86-80.632,82.86s-80.633-37.311-80.633-82.86"/>
  </g>
  <g>
    <path class="m" d="m311.373,566.687c0-45.064,36.307-82.376,80.632-82.376s80.161,37.311,80.161,82.376c0,45.549-35.837,82.86-80.161,82.86s-80.632-37.311-80.632-82.86"/>
    <path class="e" d="m311.373,566.687c0-45.064,36.307-82.376,80.632-82.376s80.161,37.311,80.161,82.376c0,45.549-35.837,82.86-80.161,82.86s-80.632-37.311-80.632-82.86"/>
  </g>
  <g>
    <path class="n" d="m798.896,261.333c0-16.96,13.673-31.012,30.177-31.012s30.179,14.052,30.179,31.012c0,17.444-13.675,31.012-30.179,31.012s-30.177-13.568-30.177-31.012"/>
    <path class="e" d="m798.896,261.333c0-16.96,13.673-31.012,30.177-31.012s30.179,14.052,30.179,31.012c0,17.444-13.675,31.012-30.179,31.012s-30.177-13.568-30.177-31.012"/>
  </g>
  <g>
    <path class="h" d="m541.439,261.333c0-16.96,13.203-31.012,30.179-31.012,16.504,0,30.177,14.052,30.177,31.012,0,17.444-13.673,31.012-30.177,31.012-16.976,0-30.179-13.568-30.179-31.012"/>
    <path class="e" d="m541.439,261.333c0-16.96,13.203-31.012,30.179-31.012,16.504,0,30.177,14.052,30.177,31.012,0,17.444-13.673,31.012-30.177,31.012-16.976,0-30.179-13.568-30.179-31.012"/>
  </g>
  <g>
    <path class="h" d="m365.558,261.333c0-16.96,13.673-31.012,30.177-31.012,16.976,0,30.179,14.052,30.179,31.012,0,17.444-13.203,31.012-30.179,31.012-16.504,0-30.177-13.568-30.177-31.012"/>
    <path class="e" d="m365.558,261.333c0-16.96,13.673-31.012,30.177-31.012,16.976,0,30.179,14.052,30.179,31.012,0,17.444-13.203,31.012-30.179,31.012-16.504,0-30.177-13.568-30.177-31.012"/>
  </g>
  <g>
    <path class="h" d="m352.826,261.333c0-16.96,13.675-31.012,30.179-31.012s30.177,14.052,30.177,31.012c0,17.444-13.673,31.012-30.177,31.012s-30.179-13.568-30.179-31.012"/>
    <path class="e" d="m352.826,261.333c0-16.96,13.675-31.012,30.179-31.012s30.177,14.052,30.177,31.012c0,17.444-13.673,31.012-30.177,31.012s-30.179-13.568-30.179-31.012"/>
  </g>
  <g>
    <path class="n" d="m1012.097,261.333c0-16.96,13.674-31.012,30.178-31.012s30.178,14.052,30.178,31.012c0,17.444-13.675,31.012-30.178,31.012s-30.178-13.568-30.178-31.012"/>
    <path class="e" d="m1012.097,261.333c0-16.96,13.674-31.012,30.178-31.012s30.178,14.052,30.178,31.012c0,17.444-13.675,31.012-30.178,31.012s-30.178-13.568-30.178-31.012"/>
  </g>
  <g>
    <path class="h" d="m553.227,261.333c0-16.96,13.675-31.012,30.179-31.012s30.177,14.052,30.177,31.012c0,17.444-13.673,31.012-30.177,31.012s-30.179-13.568-30.179-31.012"/>
    <path class="e" d="m553.227,261.333c0-16.96,13.675-31.012,30.179-31.012s30.177,14.052,30.177,31.012c0,17.444-13.673,31.012-30.177,31.012s-30.179-13.568-30.179-31.012"/>
  </g>
  <g>
    <path class="n" d="m414.126,261.333c0-16.96,13.673-31.012,30.177-31.012s30.179,14.052,30.179,31.012c0,17.444-13.675,31.012-30.179,31.012s-30.177-13.568-30.177-31.012"/>
    <path class="e" d="m414.126,261.333c0-16.96,13.673-31.012,30.177-31.012s30.179,14.052,30.179,31.012c0,17.444-13.675,31.012-30.179,31.012s-30.177-13.568-30.177-31.012"/>
  </g>
  <g>
    <path class="n" d="m838.505,261.333c0-16.96,13.673-31.012,30.177-31.012s30.179,14.052,30.179,31.012c0,17.444-13.675,31.012-30.179,31.012s-30.177-13.568-30.177-31.012"/>
    <path class="e" d="m838.505,261.333c0-16.96,13.673-31.012,30.177-31.012s30.179,14.052,30.179,31.012c0,17.444-13.675,31.012-30.179,31.012s-30.177-13.568-30.177-31.012"/>
  </g>
  <g>
    <path class="i" d="m358.484,261.333c0-16.96,13.675-31.012,30.179-31.012s30.177,14.052,30.177,31.012c0,17.444-13.673,31.012-30.177,31.012s-30.179-13.568-30.179-31.012"/>
    <path class="e" d="m358.484,261.333c0-16.96,13.675-31.012,30.179-31.012s30.177,14.052,30.177,31.012c0,17.444-13.673,31.012-30.177,31.012s-30.179-13.568-30.179-31.012"/>
  </g>
  <g>
    <path class="l" d="m753.158,261.333c0-16.96,13.673-31.012,30.177-31.012s30.179,14.052,30.179,31.012c0,17.444-13.675,31.012-30.179,31.012s-30.177-13.568-30.177-31.012"/>
    <path class="e" d="m753.158,261.333c0-16.96,13.673-31.012,30.177-31.012s30.179,14.052,30.179,31.012c0,17.444-13.675,31.012-30.179,31.012s-30.177-13.568-30.177-31.012"/>
  </g>
  <g>
    <path class="n" d="m1023.876,566.687c0-45.549,36.307-82.376,80.632-82.376s80.161,36.827,80.161,82.376-35.837,82.86-80.161,82.86-80.632-37.312-80.632-82.86"/>
    <path class="e" d="m1023.876,566.687c0-45.549,36.307-82.376,80.632-82.376s80.161,36.827,80.161,82.376-35.837,82.86-80.161,82.86-80.632-37.312-80.632-82.86"/>
  </g>
  <g>
    <path class="h" d="m1155.442,566.687c0-45.549,36.308-82.376,80.632-82.376s80.632,36.827,80.632,82.376-36.307,82.86-80.632,82.86-80.632-37.312-80.632-82.86"/>
    <path class="e" d="m1155.442,566.687c0-45.549,36.308-82.376,80.632-82.376s80.632,36.827,80.632,82.376-36.307,82.86-80.632,82.86-80.632-37.312-80.632-82.86"/>
  </g>
  <g>
    <path class="k" d="m1049.13,872.041c0-45.549,36.309-82.376,80.633-82.376s80.16,36.827,80.16,82.376-35.835,82.86-80.16,82.86-80.633-37.312-80.633-82.86"/>
    <path class="e" d="m1049.13,872.041c0-45.549,36.309-82.376,80.633-82.376s80.16,36.827,80.16,82.376-35.835,82.86-80.16,82.86-80.633-37.312-80.633-82.86"/>
  </g>
  <g>
    <path class="h" d="m742.843,566.687c0-45.549,36.308-82.376,80.16-82.376,44.324,0,80.632,36.827,80.632,82.376s-36.308,82.86-80.632,82.86c-43.852,0-80.16-37.312-80.16-82.86"/>
    <path class="e" d="m742.843,566.687c0-45.549,36.308-82.376,80.16-82.376,44.324,0,80.632,36.827,80.632,82.376s-36.308,82.86-80.632,82.86c-43.852,0-80.16-37.312-80.16-82.86"/>
  </g>
  <g>
    <path class="h" d="m835.269,566.687c0-16.96,13.674-31.012,30.178-31.012,16.975,0,30.178,14.052,30.178,31.012s-13.203,31.012-30.178,31.012c-16.504,0-30.178-14.052-30.178-31.012"/>
    <path class="e" d="m835.269,566.687c0-16.96,13.674-31.012,30.178-31.012,16.975,0,30.178,14.052,30.178,31.012s-13.203,31.012-30.178,31.012c-16.504,0-30.178-14.052-30.178-31.012"/>
  </g>
  <g>
    <path class="n" d="m903.17,566.687c0-16.96,13.674-31.012,30.178-31.012s30.178,14.052,30.178,31.012-13.675,31.012-30.178,31.012-30.178-14.052-30.178-31.012"/>
    <path class="e" d="m903.17,566.687c0-16.96,13.674-31.012,30.178-31.012s30.178,14.052,30.178,31.012-13.675,31.012-30.178,31.012-30.178-14.052-30.178-31.012"/>
  </g>
  <g>
    <path class="h" d="m402.349,566.687c0-16.96,13.673-31.012,30.177-31.012,16.976,0,30.179,14.052,30.179,31.012s-13.203,31.012-30.179,31.012c-16.504,0-30.177-14.052-30.177-31.012"/>
    <path class="e" d="m402.349,566.687c0-16.96,13.673-31.012,30.177-31.012,16.976,0,30.179,14.052,30.179,31.012s-13.203,31.012-30.179,31.012c-16.504,0-30.177-14.052-30.177-31.012"/>
  </g>
  <g>
    <path class="h" d="m821.594,566.687c0-16.96,13.675-31.012,30.178-31.012s30.178,14.052,30.178,31.012-13.674,31.012-30.178,31.012-30.178-14.052-30.178-31.012"/>
    <path class="e" d="m821.594,566.687c0-16.96,13.675-31.012,30.178-31.012s30.178,14.052,30.178,31.012-13.674,31.012-30.178,31.012-30.178-14.052-30.178-31.012"/>
  </g>
  <g>
    <path class="n" d="m863.089,566.687c0-16.96,13.203-31.012,30.178-31.012,16.504,0,29.707,14.052,29.707,31.012s-13.203,31.012-29.707,31.012c-16.975,0-30.178-14.052-30.178-31.012"/>
    <path class="e" d="m863.089,566.687c0-16.96,13.203-31.012,30.178-31.012,16.504,0,29.707,14.052,29.707,31.012s-13.203,31.012-29.707,31.012c-16.975,0-30.178-14.052-30.178-31.012"/>
  </g>
  <g>
    <path class="g" d="m671.175,566.687c0-16.96,13.675-31.012,30.179-31.012s30.178,14.052,30.178,31.012-13.675,31.012-30.178,31.012-30.179-14.052-30.179-31.012"/>
    <path class="e" d="m671.175,566.687c0-16.96,13.675-31.012,30.179-31.012s30.178,14.052,30.178,31.012-13.675,31.012-30.178,31.012-30.179-14.052-30.179-31.012"/>
  </g>
  <g>
    <path class="h" d="m831.026,566.687c0-16.96,13.674-31.012,30.178-31.012s30.178,14.052,30.178,31.012-13.675,31.012-30.178,31.012-30.178-14.052-30.178-31.012"/>
    <path class="e" d="m831.026,566.687c0-16.96,13.674-31.012,30.178-31.012s30.178,14.052,30.178,31.012-13.675,31.012-30.178,31.012-30.178-14.052-30.178-31.012"/>
  </g>
  <g>
    <path class="h" d="m880.065,566.687c0-16.96,13.203-31.012,30.178-31.012,16.504,0,29.707,14.052,29.707,31.012s-13.203,31.012-29.707,31.012c-16.975,0-30.178-14.052-30.178-31.012"/>
    <path class="e" d="m880.065,566.687c0-16.96,13.203-31.012,30.178-31.012,16.504,0,29.707,14.052,29.707,31.012s-13.203,31.012-29.707,31.012c-16.975,0-30.178-14.052-30.178-31.012"/>
  </g>
  <g>
    <path class="j" d="m884.308,566.687c0-16.96,13.675-31.012,30.178-31.012s30.178,14.052,30.178,31.012-13.674,31.012-30.178,31.012-30.178-14.052-30.178-31.012"/>
    <path class="e" d="m884.308,566.687c0-16.96,13.675-31.012,30.178-31.012s30.178,14.052,30.178,31.012-13.674,31.012-30.178,31.012-30.178-14.052-30.178-31.012"/>
  </g>
  <g>
    <path class="n" d="m730.117,566.687c0-16.96,13.675-31.012,30.179-31.012s30.178,14.052,30.178,31.012-13.675,31.012-30.178,31.012-30.179-14.052-30.179-31.012"/>
    <path class="e" d="m730.117,566.687c0-16.96,13.675-31.012,30.179-31.012s30.178,14.052,30.178,31.012-13.675,31.012-30.178,31.012-30.179-14.052-30.179-31.012"/>
  </g>
  <g>
    <path class="g" d="m242.971,566.687c0-16.96,13.674-31.012,30.177-31.012s30.179,14.052,30.179,31.012-13.675,31.012-30.179,31.012-30.177-14.052-30.177-31.012"/>
    <path class="e" d="m242.971,566.687c0-16.96,13.674-31.012,30.177-31.012s30.179,14.052,30.179,31.012-13.675,31.012-30.179,31.012-30.177-14.052-30.177-31.012"/>
  </g>
  <g>
    <path class="n" d="m278.336,566.687c0-16.96,13.203-31.012,30.177-31.012,16.504,0,30.179,14.052,30.179,31.012s-13.675,31.012-30.179,31.012c-16.974,0-30.177-14.052-30.177-31.012"/>
    <path class="e" d="m278.336,566.687c0-16.96,13.203-31.012,30.177-31.012,16.504,0,30.179,14.052,30.179,31.012s-13.675,31.012-30.179,31.012c-16.974,0-30.177-14.052-30.177-31.012"/>
  </g>
  <g>
    <path class="h" d="m825.839,566.687c0-16.96,13.674-31.012,30.178-31.012s30.178,14.052,30.178,31.012-13.675,31.012-30.178,31.012-30.178-14.052-30.178-31.012"/>
    <path class="e" d="m825.839,566.687c0-16.96,13.674-31.012,30.178-31.012s30.178,14.052,30.178,31.012-13.675,31.012-30.178,31.012-30.178-14.052-30.178-31.012"/>
  </g>
  <g>
    <path class="j" d="m472.166,566.687c0-16.96,13.674-31.012,30.178-31.012s30.178,14.052,30.178,31.012-13.675,31.012-30.178,31.012-30.178-14.052-30.178-31.012"/>
    <path class="e" d="m472.166,566.687c0-16.96,13.674-31.012,30.178-31.012s30.178,14.052,30.178,31.012-13.675,31.012-30.178,31.012-30.178-14.052-30.178-31.012"/>
  </g>
  <g>
    <path class="l" d="m548.071,566.687c0-16.96,13.673-31.012,30.177-31.012s30.179,14.052,30.179,31.012-13.675,31.012-30.179,31.012-30.177-14.052-30.177-31.012"/>
    <path class="e" d="m548.071,566.687c0-16.96,13.673-31.012,30.177-31.012s30.179,14.052,30.179,31.012-13.675,31.012-30.179,31.012-30.177-14.052-30.177-31.012"/>
  </g>
  <g>
    <path class="h" d="m836.206,872.041c0-45.549,35.837-82.86,80.161-82.86s80.632,37.311,80.632,82.86-36.307,82.86-80.632,82.86-80.161-37.311-80.161-82.86"/>
    <path class="e" d="m836.206,872.041c0-45.549,35.837-82.86,80.161-82.86s80.632,37.311,80.632,82.86-36.307,82.86-80.632,82.86-80.161-37.311-80.161-82.86"/>
  </g>
  <g>
    <path class="h" d="m926.741,872.041c0-16.96,13.203-31.012,30.178-31.012,16.503,0,29.706,14.052,29.706,31.012s-13.203,31.012-29.706,31.012c-16.975,0-30.178-14.052-30.178-31.012"/>
    <path class="e" d="m926.741,872.041c0-16.96,13.203-31.012,30.178-31.012,16.503,0,29.706,14.052,29.706,31.012s-13.203,31.012-29.706,31.012c-16.975,0-30.178-14.052-30.178-31.012"/>
  </g>
  <g>
    <path class="n" d="m716.437,872.041c0-16.96,13.674-31.012,30.178-31.012s30.178,14.052,30.178,31.012-13.674,31.012-30.178,31.012-30.178-14.052-30.178-31.012"/>
    <path class="e" d="m716.437,872.041c0-16.96,13.674-31.012,30.178-31.012s30.178,14.052,30.178,31.012-13.674,31.012-30.178,31.012-30.178-14.052-30.178-31.012"/>
  </g>
  <g>
    <path class="i" d="m1212.961,872.041c0-16.96,13.203-31.012,30.177-31.012,16.504,0,29.707,14.052,29.707,31.012s-13.203,31.012-29.707,31.012c-16.974,0-30.177-14.052-30.177-31.012"/>
    <path class="e" d="m1212.961,872.041c0-16.96,13.203-31.012,30.177-31.012,16.504,0,29.707,14.052,29.707,31.012s-13.203,31.012-29.707,31.012c-16.974,0-30.177-14.052-30.177-31.012"/>
  </g>
  <g>
    <path class="h" d="m839.978,872.041c0-16.96,13.675-31.012,30.178-31.012,16.975,0,30.178,14.052,30.178,31.012s-13.203,31.012-30.178,31.012c-16.503,0-30.178-14.052-30.178-31.012"/>
    <path class="e" d="m839.978,872.041c0-16.96,13.675-31.012,30.178-31.012,16.975,0,30.178,14.052,30.178,31.012s-13.203,31.012-30.178,31.012c-16.503,0-30.178-14.052-30.178-31.012"/>
  </g>
  <g>
    <path class="h" d="m610.342,872.041c0-16.96,13.203-31.012,30.178-31.012,16.504,0,29.707,14.052,29.707,31.012s-13.203,31.012-29.707,31.012c-16.975,0-30.178-14.052-30.178-31.012"/>
    <path class="e" d="m610.342,872.041c0-16.96,13.203-31.012,30.178-31.012,16.504,0,29.707,14.052,29.707,31.012s-13.203,31.012-29.707,31.012c-16.975,0-30.178-14.052-30.178-31.012"/>
  </g>
  <g>
    <path class="m" d="m335.38,872.526c0-16.96,13.675-31.012,30.179-31.012s30.177,14.052,30.177,31.012-13.673,31.012-30.177,31.012-30.179-14.052-30.179-31.012"/>
    <path class="e" d="m335.38,872.526c0-16.96,13.675-31.012,30.179-31.012s30.177,14.052,30.177,31.012-13.673,31.012-30.177,31.012-30.179-14.052-30.179-31.012"/>
  </g>
  <g>
    <path class="i" d="m459.923,872.041c0-16.96,13.675-31.012,30.178-31.012s30.178,14.052,30.178,31.012-13.674,31.012-30.178,31.012-30.178-14.052-30.178-31.012"/>
    <path class="e" d="m459.923,872.041c0-16.96,13.675-31.012,30.178-31.012s30.178,14.052,30.178,31.012-13.674,31.012-30.178,31.012-30.178-14.052-30.178-31.012"/>
  </g>
  <g>
    <path class="n" d="m558.002,872.041c0-16.96,13.675-31.012,30.178-31.012s30.178,14.052,30.178,31.012-13.674,31.012-30.178,31.012-30.178-14.052-30.178-31.012"/>
    <path class="e" d="m558.002,872.041c0-16.96,13.675-31.012,30.178-31.012s30.178,14.052,30.178,31.012-13.674,31.012-30.178,31.012-30.178-14.052-30.178-31.012"/>
  </g>
  <g>
    <path class="h" d="m837.149,872.041c0-16.96,13.675-31.012,30.178-31.012s30.178,14.052,30.178,31.012-13.674,31.012-30.178,31.012-30.178-14.052-30.178-31.012"/>
    <path class="e" d="m837.149,872.041c0-16.96,13.675-31.012,30.178-31.012s30.178,14.052,30.178,31.012-13.674,31.012-30.178,31.012-30.178-14.052-30.178-31.012"/>
  </g>
  <g>
    <path class="h" d="m735.77,872.041c0-16.96,13.674-31.012,30.178-31.012s30.178,14.052,30.178,31.012-13.675,31.012-30.178,31.012-30.178-14.052-30.178-31.012"/>
    <path class="e" d="m735.77,872.041c0-16.96,13.674-31.012,30.178-31.012s30.178,14.052,30.178,31.012-13.675,31.012-30.178,31.012-30.178-14.052-30.178-31.012"/>
  </g>
  <g>
    <path class="h" d="m1066.815,872.041c0-16.96,13.203-31.012,29.706-31.012,16.975,0,30.178,14.052,30.178,31.012s-13.203,31.012-30.178,31.012c-16.503,0-29.706-14.052-29.706-31.012"/>
    <path class="e" d="m1066.815,872.041c0-16.96,13.203-31.012,29.706-31.012,16.975,0,30.178,14.052,30.178,31.012s-13.203,31.012-30.178,31.012c-16.503,0-29.706-14.052-29.706-31.012"/>
  </g>
  <g>
    <path class="i" d="m638.162,872.041c0-16.96,13.675-31.012,30.178-31.012,16.975,0,30.178,14.052,30.178,31.012s-13.203,31.012-30.178,31.012c-16.503,0-30.178-14.052-30.178-31.012"/>
    <path class="e" d="m638.162,872.041c0-16.96,13.675-31.012,30.178-31.012,16.975,0,30.178,14.052,30.178,31.012s-13.203,31.012-30.178,31.012c-16.503,0-30.178-14.052-30.178-31.012"/>
  </g>
  <g>
    <path class="n" d="m523.58,872.041c0-16.96,13.203-31.012,30.178-31.012,16.503,0,30.178,14.052,30.178,31.012s-13.675,31.012-30.178,31.012c-16.975,0-30.178-14.052-30.178-31.012"/>
    <path class="e" d="m523.58,872.041c0-16.96,13.203-31.012,30.178-31.012,16.503,0,30.178,14.052,30.178,31.012s-13.675,31.012-30.178,31.012c-16.975,0-30.178-14.052-30.178-31.012"/>
  </g>
  <line class="f" x1="781.997" y1="99.633" x2="777.166" y2="1013.983"/>
  <g class="q">
    <g>
      <line class="o" x1="528.141" y1="424.302" x2="1477.735" y2="424.302"/>
      <polygon class="c" points="1447.856 449.734 1473.302 424.302 1447.856 398.871 1469.45 398.871 1494.881 424.302 1469.45 449.734 1447.856 449.734"/>
    </g>
  </g>
  <g class="q">
    <g>
      <line class="p" x1="80.385" y1="711.267" x2="1028.602" y2="711.267"/>
      <polygon class="d" points="110.263 736.697 84.818 711.267 110.263 685.838 88.67 685.838 63.241 711.267 88.67 736.697 110.263 736.697"/>
    </g>
  </g>
  <text class="r" transform="translate(1226.648 396.041)"><tspan x="0" y="0">Phenome</tspan></text>
  <text class="r" transform="translate(607.866 78.516)"><tspan x="0" y="0" xml:space="preserve"> Mic</tspan><tspan class="t" x="114.946" y="0">r</tspan><tspan x="138.541" y="0">obiome</tspan></text>
  <text class="r" transform="translate(59.255 789.18)"><tspan x="0" y="0">Exposome</tspan></text>
  <text class="r" transform="translate(627.591 1110.157)"><tspan x="0" y="0" xml:space="preserve"> Ch</tspan><tspan class="t" x="94.06" y="0">r</tspan><tspan class="u" x="117.654" y="0">onome</tspan></text>
  <g id="b" data-name="K8VCHd.tif" class="s">
    <path d="m783.81,1038.597c4.619,4.544,9.177,9.027,13.735,13.511-.062.107-.158.062-.235.062-5.432.05-10.863.095-16.295.15-.206.002-.312-.104-.433-.223-1.87-1.84-3.739-3.681-5.609-5.521-3.312-3.259-6.623-6.518-9.935-9.777-1.302-1.281-2.598-2.569-3.913-3.836-.23-.222-.2-.325.006-.534,2.615-2.638,5.221-5.286,7.827-7.933,3.097-3.145,6.193-6.29,9.288-9.436.653-.664,1.311-1.324,1.953-1.999.184-.194.375-.27.642-.272,4.034-.029,8.068-.07,12.101-.101,1.408-.011,2.816-.002,4.317-.002-4.591,4.663-9.137,9.28-13.754,13.97.56-.034,1.019-.059,1.477-.091,3.289-.23,6.573-.503,9.844-.927,4.108-.532,8.186-1.227,12.224-2.155,6.328-1.455,12.506-3.361,18.371-6.188,3.199-1.542,6.248-3.331,8.966-5.641,1.484-1.261,2.811-2.668,3.839-4.33,1.043-1.686,1.652-3.499,1.431-5.513-.2-1.828-.977-3.424-2.057-4.884-1.761-2.379-4.014-4.217-6.463-5.834-3.959-2.614-8.258-4.534-12.708-6.128-5.314-1.903-10.769-3.274-16.316-4.3-3.495-.646-7.01-1.15-10.544-1.521-4.941-.519-9.898-.776-14.866-.786-4.119-.009-8.233.136-12.34.465-7.955.637-15.806,1.879-23.513,3.978-5.46,1.487-10.767,3.381-15.783,6.03-2.596,1.371-5.078,2.921-7.286,4.872-1.578,1.394-3.01,2.918-4.005,4.802-.703,1.331-1.085,2.734-1.119,4.253-.069,3.043-2.361,5.45-5.427,5.776-2.822.3-5.548-1.609-6.289-4.407-.327-1.235-.222-2.486-.075-3.727.603-5.106,2.988-9.349,6.413-13.07,3.196-3.472,6.988-6.174,11.083-8.473,5.475-3.074,11.295-5.308,17.304-7.077,5.472-1.61,11.04-2.78,16.679-3.627,5.314-.797,10.654-1.298,16.021-1.547,5.467-.254,10.934-.252,16.399.03,10.284.531,20.434,1.944,30.375,4.696,6.154,1.704,12.125,3.891,17.767,6.91,4.478,2.396,8.62,5.257,12.104,8.992,2.792,2.993,4.928,6.378,5.97,10.372,1.337,5.126.614,10.007-1.863,14.655-1.779,3.338-4.255,6.101-7.111,8.54-4.203,3.589-8.965,6.266-14,8.487-6.085,2.684-12.418,4.595-18.9,6.034-4.44.986-8.922,1.728-13.437,2.267-3.128.374-6.265.657-9.41.838-.782.045-1.563.107-2.451.169Z"/>
  </g>
</svg>